<?xml version="1.0" encoding="iso-8859-1"?>
<!-- Generator: Adobe Illustrator 16.0.0, SVG Export Plug-In . SVG Version: 6.00 Build 0)  -->
<!DOCTYPE svg PUBLIC "-//W3C//DTD SVG 1.1//EN" "http://www.w3.org/Graphics/SVG/1.1/DTD/svg11.dtd">
<svg version="1.1" id="Capa_1" xmlns="http://www.w3.org/2000/svg" xmlns:xlink="http://www.w3.org/1999/xlink" x="0px" y="0px"
	 width="233.368px" height="233.368px" viewBox="0 0 233.368 233.368" style="enable-background:new 0 0 233.368 233.368;"
	 xml:space="preserve">
<g>
	<path d="M209.77,173.335c-0.131-1.349-0.242-2.693-0.474-4.021l-0.366-2.209l-0.361-1.59l-0.574-2.26
		c-2.871-10.205-9.561-19.279-18.465-25.025c-8.625-5.565-19.553-8.229-29.744-6.412c0,0-1.68,0.3-3.432,0.691
		c-7.715,1.738-16.226,7.635-20.867,15.355c-4.637,7.711-5.814,16.812-3.531,25.489c2.072,6.42,6.187,11.888,12.146,15.176
		c5.1,2.816,10.84,3.604,16.543,2.636c1.951-0.332,1.643-3.318-0.334-3.248l-0.101,0.004c-4.428,0.16-8.731-0.828-12.455-3.31
		c-4.219-2.811-7.18-7.143-8.245-12.098c-0.054-0.297-0.105-0.592-0.16-0.893c-0.082-0.646-0.146-1.295-0.207-1.943
		c0.026,0.174,0.006,0.014,0.014,0.037l-0.002-0.063l-0.006-0.121l-0.006-0.243l-0.017-0.49
		c-0.051-10.976,7.511-21.131,18.601-22.945c1.92-0.26,3.436-0.291,3.436-0.291c12.646-0.672,24.363,8.887,26.746,21.156
		c0.055,0.373,0.142,0.785,0.18,1.119c0.025,0.312,0.058,0.604,0.099,0.922c0,0,0.119,1.475,0.127,1.557l0.021,1.093
		c0.351,7.487-2.571,15.219-7.317,20.938c-2.404,2.9-8.859,9.809-19.207,10.832c-41.194,3.664-47.111-7.42-49.152-15.016
		C111.576,184.14,81.98,74.852,80.326,68.747c1.223-0.803,1.015-2.006,1.066-4.184l-0.013-4.133c0,0,12.811-1.717,20.223-8.717
		c6.59-6.223-0.064-24.625-0.064-24.625L97.829,7.34C95.268-3.234,89.341-0.715,85.6,4.512l-7.951,11.771l-12.26-0.037v-0.01
		l-1.421,0.006l-1.421-0.006v0.01l-12.259,0.041L42.337,4.516c-2.965-4.871-10.403-7.995-12.229,2.828l-3.709,19.748
		c0,0-6.654,18.402-0.064,24.625c7.412,7,20.223,8.717,20.223,8.717l-0.013,4.133c0.054,2.277-0.164,3.484,1.256,4.289
		L30.578,201.767c-4.912,31.603,16.012,31.564,21.1,31.564l99.1,0.037c5.402-0.132,10.66-0.298,15.973-1.363
		c5.125-1.029,10.144-3.229,14.666-5.813c9.767-5.582,17.791-14.078,22.783-24.16C208.57,193.205,210.58,183.164,209.77,173.335z"/>
</g>
<g>
</g>
<g>
</g>
<g>
</g>
<g>
</g>
<g>
</g>
<g>
</g>
<g>
</g>
<g>
</g>
<g>
</g>
<g>
</g>
<g>
</g>
<g>
</g>
<g>
</g>
<g>
</g>
<g>
</g>
</svg>
